<svg width="40" height="43" viewBox="0 0 40 43" fill="none" xmlns="http://www.w3.org/2000/svg">
<path id="Vector" fill-rule="evenodd" clip-rule="evenodd" d="M19.6279 0C15.7458 0 11.9509 1.24829 8.72321 3.58704C5.49543 5.92577 2.97968 9.2499 1.4941 13.1391C0.00850427 17.0282 -0.380193 21.3078 0.377153 25.4365C1.1345 29.5652 3.00387 33.3577 5.74887 36.3344C8.49389 39.311 11.9912 41.3381 15.7987 42.1595C19.606 42.9807 23.5526 42.5591 27.1391 40.9481C30.7257 39.3373 33.7911 36.6092 35.9479 33.109C38.1046 29.6089 39.2557 25.4938 39.2557 21.2842C39.2557 15.6392 37.1878 10.2255 33.5068 6.234C29.8259 2.24244 24.8335 0 19.6279 0ZM19.6279 3.86985C22.8041 3.86985 25.9089 4.89118 28.5499 6.80469C31.1908 8.7182 33.2491 11.438 34.4646 14.62C35.6801 17.8021 35.9981 21.3035 35.3784 24.6815C34.7589 28.0596 33.2293 31.1625 30.9834 33.598C28.7375 36.0334 25.876 37.6919 22.7608 38.3639C19.6456 39.0358 16.4167 38.691 13.4823 37.3729C10.5479 36.0549 8.03977 33.8228 6.27517 30.9591C4.51056 28.0952 3.56872 24.7285 3.56872 21.2842C3.56872 16.6656 5.26065 12.2362 8.27233 8.97039C11.284 5.70457 15.3687 3.86985 19.6279 3.86985ZM16.0592 26.0828L12.0444 21.11C11.8933 20.9066 11.7058 20.7384 11.4931 20.6157C11.2805 20.493 11.0472 20.4183 10.8072 20.3959C10.5672 20.3736 10.3255 20.4043 10.0967 20.4859C9.86794 20.5675 9.65677 20.6986 9.47594 20.8711C9.29511 21.0438 9.14837 21.2543 9.04458 21.4899C8.94077 21.7256 8.88205 21.9817 8.87196 22.2426C8.86186 22.5036 8.90058 22.7641 8.98581 23.0084C9.07104 23.2527 9.201 23.4757 9.36785 23.6641L13.3826 28.6369C13.7171 29.0497 14.1287 29.3806 14.5902 29.6074C15.0517 29.8343 15.5524 29.952 16.0592 29.9526C16.5689 29.9547 17.0731 29.8383 17.5378 29.6114C18.0026 29.3844 18.4172 29.0522 18.7535 28.6369L29.8879 14.8216C30.1763 14.4333 30.3154 13.9393 30.2761 13.4425C30.2368 12.9457 30.0222 12.4846 29.677 12.1552C29.3319 11.8259 28.8828 11.6537 28.4235 11.6746C27.9641 11.6955 27.5298 11.9079 27.2114 12.2674L16.0592 26.0828Z" fill="#EE3945"/>
</svg>
