<svg width="27" height="27" viewBox="0 0 27 27" fill="none" xmlns="http://www.w3.org/2000/svg">
<path d="M25.402 17.8325C25.0182 17.8325 24.6502 17.9814 24.3788 18.2465C24.1073 18.5116 23.9549 18.8711 23.9549 19.246V22.6383C23.9519 22.8623 23.8595 23.0764 23.6973 23.2348C23.535 23.3932 23.316 23.4834 23.0866 23.4864H4.56332C4.33397 23.4834 4.11486 23.3932 3.95268 23.2348C3.79049 23.0764 3.69804 22.8623 3.69504 22.6383V19.246C3.69504 18.8711 3.54258 18.5116 3.27119 18.2465C2.9998 17.9814 2.63171 17.8325 2.24791 17.8325C1.86411 17.8325 1.49603 17.9814 1.22464 18.2465C0.953247 18.5116 0.800781 18.8711 0.800781 19.246V22.6383C0.803835 23.612 1.20122 24.545 1.90618 25.2336C2.61113 25.9222 3.56638 26.3103 4.56332 26.3133H23.0866C24.0836 26.3103 25.0388 25.9222 25.7438 25.2336C26.4487 24.545 26.8461 23.612 26.8491 22.6383V19.246C26.8491 18.8711 26.6967 18.5116 26.4253 18.2465C26.1539 17.9814 25.7858 17.8325 25.402 17.8325Z" fill="#EE3945"/>
<path d="M13.8219 0.871094C13.4268 0.871094 13.0478 1.02544 12.7685 1.30019C12.4891 1.57493 12.3321 1.94756 12.3321 2.33611V15.615L7.62432 11.7122C7.30822 11.4635 6.90462 11.3485 6.50229 11.3925C6.09997 11.4365 5.73187 11.6358 5.479 11.9466C5.22612 12.2574 5.10917 12.6543 5.15387 13.05C5.19858 13.4456 5.40127 13.8076 5.71737 14.0562L12.8684 19.9163L13.1068 20.0569L13.2737 20.1506C13.6212 20.2907 14.0107 20.2907 14.3583 20.1506L14.5251 20.0569C14.6086 20.017 14.6884 19.97 14.7635 19.9163L21.9146 14.0562C22.0761 13.937 22.2113 13.7866 22.312 13.6144C22.4126 13.4421 22.4767 13.2516 22.5001 13.0542C22.5235 12.8569 22.5058 12.657 22.4482 12.4665C22.3906 12.2761 22.2941 12.0992 22.1648 11.9466C22.0189 11.7767 21.836 11.6411 21.6298 11.5499C21.4235 11.4586 21.1991 11.4139 20.9729 11.4192C20.6242 11.4173 20.2861 11.5379 20.0195 11.7591L15.3117 15.615V2.33611C15.3117 1.94756 15.1547 1.57493 14.8754 1.30019C14.596 1.02544 14.217 0.871094 13.8219 0.871094Z" fill="#EE3945"/>
</svg>
